<?xml version="1.0" encoding="UTF-8" standalone="no"?>
<!-- Created with Inkscape (http://www.inkscape.org/) -->

<svg
   xmlns:dc="http://purl.org/dc/elements/1.1/"
   xmlns:cc="http://creativecommons.org/ns#"
   xmlns:rdf="http://www.w3.org/1999/02/22-rdf-syntax-ns#"
   xmlns:svg="http://www.w3.org/2000/svg"
   xmlns="http://www.w3.org/2000/svg"
   xmlns:sodipodi="http://sodipodi.sourceforge.net/DTD/sodipodi-0.dtd"
   xmlns:inkscape="http://www.inkscape.org/namespaces/inkscape"
   width="25mm"
   height="26mm"
   viewBox="0 0 25 26"
   version="1.1"
   id="svg531"
   inkscape:version="0.92.4 (5da689c313, 2019-01-14)"
   sodipodi:docname="starters.svg">
  <defs
     id="defs525" />
  <sodipodi:namedview
     id="base"
     pagecolor="#ffffff"
     bordercolor="#666666"
     borderopacity="1.0"
     inkscape:pageopacity="0.0"
     inkscape:pageshadow="2"
     inkscape:zoom="1.0074671"
     inkscape:cx="400"
     inkscape:cy="80"
     inkscape:document-units="mm"
     inkscape:current-layer="layer1"
     showgrid="false"
     inkscape:window-width="1366"
     inkscape:window-height="705"
     inkscape:window-x="-8"
     inkscape:window-y="-8"
     inkscape:window-maximized="1" />
  <metadata
     id="metadata528">
    <rdf:RDF>
      <cc:Work
         rdf:about="">
        <dc:format>image/svg+xml</dc:format>
        <dc:type
           rdf:resource="http://purl.org/dc/dcmitype/StillImage" />
        <dc:title></dc:title>
      </cc:Work>
    </rdf:RDF>
  </metadata>
  <g
     inkscape:label="Layer 1"
     inkscape:groupmode="layer"
     id="layer1"
     transform="translate(0,-271)">
    <path
       inkscape:connector-curvature="0"
       class="st1"
       d="m 10.787179,292.0457 c 0.423333,-1.40229 0.05292,-2.98979 -1.0847925,-4.02166 l 0.6085425,-0.82021 2.116667,1.61396 1.243542,-1.64042 -2.116667,-1.61396 0.767291,-1.03187 2.619376,1.98437 c 0.423333,-1.40229 0.05292,-2.98979 -1.084792,-4.02166 l 0.555625,-0.74084 0.9525,0.71438 c 0.661462,0.50271 1.613962,0.37041 2.116662,-0.29104 l 0.1323,-0.18521 c 0.5027,-0.66146 0.37041,-1.61396 -0.29105,-2.11667 l -0.9525,-0.71437 2.09021,-2.75167 c 0.0265,-0.0265 0.0529,-0.0794 0.0529,-0.10583 0.97896,0.52916 2.24896,0.29104 2.96334,-0.635 0.76729,-1.03188 0.58208,-2.48709 -0.4498,-3.25438 -1.03187,-0.76729 -2.48708,-0.58208 -3.25437,0.44979 -0.71438,0.92604 -0.60854,2.19604 0.18521,3.01625 -0.0265,0.0265 -0.0529,0.0529 -0.0794,0.0794 l -2.09021,2.75166 -0.952501,-0.71437 c -0.661456,-0.50271 -1.613956,-0.37042 -2.116664,0.29104 l -0.132292,0.18521 c -0.502709,0.66146 -0.370417,1.61396 0.291042,2.11667 l 0.9525,0.71437 -0.555625,0.74083 c -1.296459,-0.79375 -2.910417,-0.74083 -4.1539595,0.0529 l 2.6193755,1.98438 -0.767292,1.03187 -2.1166665,-1.61396 -1.243542,1.64042 2.116667,1.61396 -0.608542,0.82021 c -1.296458,-0.79375 -2.9104168,-0.74084 -4.1539578,0.0529 l 2.6193748,1.98438 -0.767292,1.03187 -0.9524998,-0.71437 c -0.661458,-0.50271 -1.613958,-0.37042 -2.116667,0.29104 l -0.132291,0.18521 c -0.502709,0.66146 -0.370417,1.61396 0.291041,2.11666 l 0.9525,0.71438 -2.328333,3.09562 c -0.132292,0.15875 -0.105833,0.39688 0.07937,0.52917 0.15875,0.13229 0.396875,0.10583 0.529167,-0.0794 l 2.328333,-3.09562 0.9524998,0.71437 c 0.661458,0.50271 1.613958,0.37042 2.116667,-0.29104 l 0.132291,-0.18521 c 0.502709,-0.66146 0.370417,-1.61396 -0.291041,-2.11667 l -0.9525,-0.71438 0.767291,-1.03187 z m 7.699374,-18.62666 c 0.50271,-0.66146 1.42875,-0.76729 2.06375,-0.29104 0.66146,0.5027 0.76729,1.42875 0.29104,2.06375 -0.50271,0.66145 -1.42875,0.76729 -2.06375,0.29104 -0.66146,-0.47625 -0.79375,-1.42875 -0.29104,-2.06375 z"
       id="path4576"
       style="stroke-width:0.26458332" />
  </g>
</svg>
