<?xml version="1.0" encoding="UTF-8" standalone="no"?>
<!-- Created with Inkscape (http://www.inkscape.org/) -->

<svg
   xmlns:dc="http://purl.org/dc/elements/1.1/"
   xmlns:cc="http://creativecommons.org/ns#"
   xmlns:rdf="http://www.w3.org/1999/02/22-rdf-syntax-ns#"
   xmlns:svg="http://www.w3.org/2000/svg"
   xmlns="http://www.w3.org/2000/svg"
   xmlns:sodipodi="http://sodipodi.sourceforge.net/DTD/sodipodi-0.dtd"
   xmlns:inkscape="http://www.inkscape.org/namespaces/inkscape"
   width="250mm"
   height="260mm"
   viewBox="0 0 250 260"
   version="1.1"
   id="svg4229"
   inkscape:version="0.92.4 (5da689c313, 2019-01-14)"
   sodipodi:docname="starters.svg">
  <defs
     id="defs4223" />
  <sodipodi:namedview
     id="base"
     pagecolor="#ffffff"
     bordercolor="#666666"
     borderopacity="1.0"
     inkscape:pageopacity="0.0"
     inkscape:pageshadow="2"
     inkscape:zoom="0.35"
     inkscape:cx="400"
     inkscape:cy="560"
     inkscape:document-units="mm"
     inkscape:current-layer="layer1"
     showgrid="false"
     inkscape:window-width="1366"
     inkscape:window-height="705"
     inkscape:window-x="-8"
     inkscape:window-y="-8"
     inkscape:window-maximized="1" />
  <metadata
     id="metadata4226">
    <rdf:RDF>
      <cc:Work
         rdf:about="">
        <dc:format>image/svg+xml</dc:format>
        <dc:type
           rdf:resource="http://purl.org/dc/dcmitype/StillImage" />
        <dc:title></dc:title>
      </cc:Work>
    </rdf:RDF>
  </metadata>
  <g
     inkscape:label="Layer 1"
     inkscape:groupmode="layer"
     id="layer1"
     transform="translate(0,-37)">
    <path
       inkscape:connector-curvature="0"
       class="st1"
       d="m 115.70618,243.19785 c 4.18195,-13.5714 0.52258,-28.93526 -10.7163,-38.92171 l 6.01157,-7.93802 20.90992,15.61994 12.28455,-15.87602 -20.90992,-15.61994 7.57983,-9.98646 25.87603,19.20477 c 4.18194,-13.57139 0.52259,-28.93526 -10.71631,-38.92183 l 5.48881,-7.16976 9.40944,6.91379 c 6.53436,4.86514 15.94382,3.58483 20.90994,-2.8168 l 1.30684,-1.79236 c 4.96612,-6.40163 3.65926,-15.61995 -2.87509,-20.48518 l -9.40946,-6.91379 20.64855,-26.630643 c 0.26177,-0.256468 0.52257,-0.768437 0.52257,-1.024323 9.67075,5.121312 22.21667,2.816793 29.27381,-6.145554 7.57981,-9.98646 5.75019,-24.070017 -4.44334,-31.495869 -10.19362,-7.425852 -24.56917,-5.633384 -32.14901,4.353079 -7.05703,8.962239 -6.01157,21.25333 1.82964,29.191354 -0.26177,0.256458 -0.52259,0.511958 -0.78436,0.768415 l -20.64853,26.630641 -9.40946,-6.91369 c -6.53426,-4.86523 -15.9437,-3.58493 -20.90982,2.81669 l -1.30685,1.79247 c -4.96611,6.40164 -3.65927,15.61995 2.87509,20.4851 l 9.40945,6.91379 -5.48889,7.16976 c -12.80723,-7.68192 -28.75105,-7.16976 -41.035588,0.51198 l 25.875948,19.20478 -7.57983,9.98656 -20.909917,-15.61994 -12.284536,15.87602 20.909923,15.61994 -6.011588,7.93792 c -12.807322,-7.68193 -28.751124,-7.16977 -41.035666,0.51197 l 25.875946,19.20487 -7.579824,9.98647 -9.409453,-6.91369 c -6.534365,-4.86524 -15.943803,-3.58494 -20.909921,2.81669 l -1.30686,1.79247 c -4.966104,6.40152 -3.659166,15.61985 2.875104,20.48508 l 9.409438,6.9138 -23.000841,29.95949 c -1.306844,1.53639 -1.045461,3.84101 0.784371,5.12132 1.568245,1.2803 3.920551,1.02421 5.22741,-0.76844 l 23.000935,-29.95959 9.409453,6.91379 c 6.534255,4.86525 15.94371,3.58493 20.909828,-2.81668 l 1.306853,-1.79258 c 4.966106,-6.40152 3.65926,-15.61985 -2.875098,-20.48509 l -9.409453,-6.91378 7.579825,-9.98647 z M 191.76586,62.928572 c 4.96613,-6.401627 14.11417,-7.425949 20.38714,-2.816789 6.53436,4.865239 7.57993,13.827477 2.8752,19.97302 -4.96612,6.401626 -14.11418,7.425961 -20.38716,2.816793 -6.53434,-4.609158 -7.8412,-13.827483 -2.87518,-19.973024 z"
       id="path4576"
       style="stroke-width:2.58705378" />
  </g>
</svg>
